<?xml version="1.0" encoding="UTF-8"?>
<!DOCTYPE svg PUBLIC "-//W3C//DTD SVG 1.1//EN" "http://www.w3.org/Graphics/SVG/1.1/DTD/svg11.dtd">
<!-- Creator: CorelDRAW X7 -->
<svg xmlns="http://www.w3.org/2000/svg" xml:space="preserve" width="4.4139mm" height="2.3861mm" version="1.1" style="shape-rendering:geometricPrecision; text-rendering:geometricPrecision; image-rendering:optimizeQuality; fill-rule:evenodd; clip-rule:evenodd"
viewBox="0 0 44138 23860"
 xmlns:xlink="http://www.w3.org/1999/xlink">
 <defs>
  <style type="text/css">
   <![CDATA[
    .fil0 {fill:#E31E24;fill-rule:nonzero}
   ]]>
  </style>
 </defs>
 <g id="Слой_x0020_1">
  <metadata id="CorelCorpID_0Corel-Layer"/>
  <path class="fil0" d="M6947 0c-4789,0 -6947,5350 -6947,12038 0,5997 1726,11821 6817,11821 3754,0 6817,-3666 6817,-12037 0,-5566 -1208,-11822 -6688,-11822l1 0zm-43 4013c1510,0 1985,2891 1985,7939 0,5350 -518,7896 -1985,7896 -1553,0 -2244,-2459 -2157,-7896 -43,-5436 690,-7939 2157,-7939zm10183 19846c733,0 1467,0 2157,-86 2287,-345 4357,-1381 5781,-2933 2157,-2287 3840,-5997 3840,-11261 0,-5652 -2287,-9579 -6645,-9579 -4486,0 -6902,4142 -6902,8155 0,4272 2459,6990 5480,6990 1509,0 2588,-604 3321,-1467l129 0c-388,2114 -1251,3754 -2286,4703 -820,777 -1812,1251 -2761,1424 -733,129 -1208,173 -2114,173l0 3882 0 -1zm4875 -20450c1293,0 2156,1726 2156,4789 0,1553 -43,2071 -216,2503 -259,604 -949,1208 -1769,1208 -1466,0 -2156,-1855 -2199,-4142 -86,-2805 863,-4358 2028,-4358zm10397 20450c733,0 1467,0 2157,-86 2287,-345 4358,-1381 5782,-2933 2157,-2287 3840,-5997 3840,-11261 0,-5652 -2287,-9579 -6645,-9579 -4487,0 -6903,4142 -6903,8155 0,4272 2459,6990 5480,6990 1510,0 2589,-604 3322,-1467l129 0c-388,2114 -1251,3754 -2287,4703 -820,777 -1812,1251 -2761,1424 -733,129 -1208,173 -2114,173l0 3882 0 -1zm4876 -20450c1294,0 2157,1726 2157,4789 0,1553 -43,2071 -216,2503 -259,604 -949,1208 -1769,1208 -1467,0 -2157,-1855 -2200,-4142 -86,-2805 863,-4358 2028,-4358z"/>
 </g>
</svg>
