<?xml version="1.0" encoding="UTF-8"?>
<!DOCTYPE svg PUBLIC "-//W3C//DTD SVG 1.1//EN" "http://www.w3.org/Graphics/SVG/1.1/DTD/svg11.dtd">
<!-- Creator: CorelDRAW X7 -->
<svg xmlns="http://www.w3.org/2000/svg" xml:space="preserve" width="2.8499mm" height="2.388mm" version="1.1" style="shape-rendering:geometricPrecision; text-rendering:geometricPrecision; image-rendering:optimizeQuality; fill-rule:evenodd; clip-rule:evenodd"
viewBox="0 0 28500 23881"
 xmlns:xlink="http://www.w3.org/1999/xlink">
 <defs>
  <style type="text/css">
   <![CDATA[
    .fil0 {fill:#E31E24;fill-rule:nonzero}
   ]]>
  </style>
 </defs>
 <g id="Слой_x0020_1">
  <metadata id="CorelCorpID_0Corel-Layer"/>
  <path class="fil0" d="M0 22811c1014,620 2703,1070 4562,1070 5069,0 7829,-3492 7829,-7040 0,-3099 -1746,-5126 -3999,-5915l0 -56c2084,-957 3379,-2929 3379,-5238 0,-2985 -2084,-5632 -6195,-5632 -1915,0 -3830,620 -4787,1239l620 3548c901,-620 1915,-957 2985,-957 1633,0 2647,1014 2647,2703 0,2253 -2140,2985 -3886,2985l-451 0 0 3436 620 0c2365,56 4337,1126 4337,3718 0,1971 -1239,3379 -3548,3379 -1183,0 -2534,-394 -3492,-901l-620 3661 -1 0zm15827 -22529l0 4111 7885 0 0 113 -7096 19094 4562 0 7322 -20220 0 -3098 -12672 0 -1 0z"/>
 </g>
</svg>
