<?xml version="1.0" encoding="UTF-8"?>
<!DOCTYPE svg PUBLIC "-//W3C//DTD SVG 1.1//EN" "http://www.w3.org/Graphics/SVG/1.1/DTD/svg11.dtd">
<!-- Creator: CorelDRAW X7 -->
<svg xmlns="http://www.w3.org/2000/svg" xml:space="preserve" width="4.3603mm" height="2.3869mm" version="1.1" style="shape-rendering:geometricPrecision; text-rendering:geometricPrecision; image-rendering:optimizeQuality; fill-rule:evenodd; clip-rule:evenodd"
viewBox="0 0 43602 23868"
 xmlns:xlink="http://www.w3.org/1999/xlink">
 <defs>
  <style type="text/css">
   <![CDATA[
    .fil0 {fill:#E31E24;fill-rule:nonzero}
   ]]>
  </style>
 </defs>
 <g id="Слой_x0020_1">
  <metadata id="CorelCorpID_0Corel-Layer"/>
  <path class="fil0" d="M1 286l0 4135 7943 0 0 41 -7165 19118 4585 0 7328 -20224 0 -3071 -12692 0 1 1zm14739 22558c983,573 2702,1024 4544,1024 5076,0 7819,-3479 7819,-7041 0,-3112 -1720,-5159 -3971,-5895l0 -82c2088,-942 3357,-2907 3357,-5240 0,-2948 -2088,-5609 -6181,-5609 -1924,0 -3807,614 -4790,1228l655 3521c860,-573 1842,-901 2948,-901 1638,0 2661,983 2661,2661 0,2252 -2170,2989 -3889,3030l-450 0 0 3439 614 0c2334,41 4339,1105 4339,3685 0,1965 -1227,3357 -3520,3357 -1228,0 -2579,-328 -3480,-860l-655 3684 -1 -1zm22189 -22844c-4790,0 -6960,5322 -6960,12037 0,5977 1720,11831 6796,11831 3767,0 6837,-3684 6837,-12036 0,-5568 -1228,-11832 -6673,-11832zm-41 4012c1515,0 1965,2907 1965,7943 0,5322 -532,7902 -1965,7902 -1597,0 -2252,-2456 -2170,-7902 -41,-5445 696,-7943 2170,-7943z"/>
 </g>
</svg>
