<?xml version="1.0" encoding="UTF-8"?>
<!DOCTYPE svg PUBLIC "-//W3C//DTD SVG 1.1//EN" "http://www.w3.org/Graphics/SVG/1.1/DTD/svg11.dtd">
<!-- Creator: CorelDRAW X7 -->
<svg xmlns="http://www.w3.org/2000/svg" xml:space="preserve" width="2.8911mm" height="2.388mm" version="1.1" style="shape-rendering:geometricPrecision; text-rendering:geometricPrecision; image-rendering:optimizeQuality; fill-rule:evenodd; clip-rule:evenodd"
viewBox="0 0 28910 23879"
 xmlns:xlink="http://www.w3.org/1999/xlink">
 <defs>
  <style type="text/css">
   <![CDATA[
    .fil0 {fill:#E31E24;fill-rule:nonzero}
   ]]>
  </style>
 </defs>
 <g id="Слой_x0020_1">
  <metadata id="CorelCorpID_0Corel-Layer"/>
  <path class="fil0" d="M1793 23879c694,0 1446,0 2139,-116 2313,-347 4337,-1388 5782,-2949 2139,-2255 3816,-5956 3816,-11216 0,-5666 -2255,-9598 -6592,-9598 -4510,0 -6938,4163 -6938,8153 0,4279 2486,6995 5493,6995 1503,0 2544,-636 3354,-1445l58 0c-347,2081 -1214,3700 -2255,4682 -809,752 -1792,1214 -2718,1388 -752,173 -1272,173 -2139,173l0 3932 0 1zm4857 -20468c1330,0 2197,1735 2197,4799 0,1561 -58,2024 -231,2486 -289,578 -983,1214 -1792,1214 -1446,0 -2139,-1850 -2197,-4105 -58,-2833 867,-4394 2024,-4394l-1 0zm11968 7922c-1908,1214 -3469,3295 -3469,6186 0,3816 2775,6360 6765,6360 3874,0 6996,-2544 6996,-6823 0,-2774 -1446,-4914 -3585,-6070l0 -116c2428,-1503 3065,-3585 3065,-5146 0,-3469 -2660,-5724 -6013,-5724 -3585,0 -6592,2313 -6592,6129 0,1850 867,3816 2833,5146l0 58zm3469 9366c-1561,0 -2428,-1677 -2428,-3701 0,-1792 867,-3237 2024,-4046 1330,694 2718,2081 2718,4278 0,1966 -809,3469 -2313,3469l-1 0zm116 -17519c1330,0 1908,1388 1908,3007 0,1330 -636,2833 -1619,3296 -1388,-694 -2313,-1850 -2313,-3469 0,-1446 636,-2833 2024,-2833l0 -1z"/>
 </g>
</svg>
