<?xml version="1.0" encoding="UTF-8"?>
<!DOCTYPE svg PUBLIC "-//W3C//DTD SVG 1.1//EN" "http://www.w3.org/Graphics/SVG/1.1/DTD/svg11.dtd">
<!-- Creator: CorelDRAW X7 -->
<svg xmlns="http://www.w3.org/2000/svg" xml:space="preserve" width="16.465mm" height="2.4741mm" version="1.1" style="shape-rendering:geometricPrecision; text-rendering:geometricPrecision; image-rendering:optimizeQuality; fill-rule:evenodd; clip-rule:evenodd"
viewBox="0 0 17706 2661"
 xmlns:xlink="http://www.w3.org/1999/xlink">
 <defs>
  <style type="text/css">
   <![CDATA[
    .fil0 {fill:#E31E24;fill-rule:nonzero}
   ]]>
  </style>
 </defs>
 <g id="Слой_x0020_1">
  <metadata id="CorelCorpID_0Corel-Layer"/>
  <path class="fil0" d="M1072 2036l112 594 489 0 -505 -2599 -605 0 -563 2599 490 0 115 -594 467 0zm-417 -393l97 -544c27,-150 65,-416 92,-590l12 0c23,170 58,432 85,590l85 544 -371 0zm2437 524c-61,19 -158,39 -243,39 -308,0 -543,-243 -543,-864 0,-644 258,-891 543,-891 112,0 178,23 236,50l84 -424c-50,-35 -173,-69 -350,-69 -506,0 -1049,382 -1049,1361 0,740 316,1284 983,1284 174,0 316,-27 389,-62l-50 -424zm1014 -2167c-578,0 -859,613 -859,1323 0,713 231,1338 821,1338 493,0 840,-398 840,-1377 0,-594 -177,-1284 -802,-1284zm-23 440c232,0 301,412 301,867 0,528 -81,914 -297,914 -204,0 -316,-301 -316,-891 0,-559 112,-890 312,-890zm1146 2190l505 0 0 -968c34,4 65,4 100,4 212,0 470,-77 632,-251 135,-142 220,-343 220,-624 0,-220 -69,-436 -223,-571 -166,-158 -405,-201 -706,-201 -193,0 -386,20 -528,50l0 2561zm505 -2183c31,-11 77,-19 123,-19 235,0 328,177 328,405 0,243 -112,424 -366,424 -31,0 -58,0 -85,-4l0 -806zm1550 2183l505 0 0 -2133 463 0 0 -466 -1427 0 0 466 459 0 0 2133zm1234 -2599l0 2599 466 0 382 -991c85,-220 200,-532 262,-764l8 0c-16,263 -35,648 -35,1169l0 586 444 0 0 -2599 -459 0 -382 1006c-77,197 -208,540 -281,764l-8 0c19,-270 50,-717 50,-1196l0 -574 -447 0zm3613 2599l451 0 -158 -2599 -532 0 -209 941c-65,327 -123,621 -162,910l-11 0c-46,-293 -112,-583 -181,-910l-209 -941 -536 0 -185 2599 432 0 46 -902c12,-259 31,-587 39,-868l8 0c42,281 112,605 162,814l216 913 354 0 228 -929c50,-200 119,-520 166,-798l7 0c-4,278 12,613 27,860l47 910zm1916 -1562l-590 0 0 -598 625 0 0 -439 -1130 0 0 2599 1172 0 0 -440 -667 0 0 -702 590 0 0 -420zm424 -1037l0 2599 505 0 0 -1088 528 0 0 1088 506 0 0 -2599 -506 0 0 1041 -528 0 0 -1041 -505 0zm2267 2599l505 0 0 -2133 463 0 0 -466 -1426 0 0 466 458 0 0 2133z"/>
 </g>
</svg>
