<?xml version="1.0" encoding="UTF-8"?>
<!DOCTYPE svg PUBLIC "-//W3C//DTD SVG 1.1//EN" "http://www.w3.org/Graphics/SVG/1.1/DTD/svg11.dtd">
<!-- Creator: CorelDRAW X7 -->
<svg xmlns="http://www.w3.org/2000/svg" xml:space="preserve" width="14.6901mm" height="2.9546mm" version="1.1" style="shape-rendering:geometricPrecision; text-rendering:geometricPrecision; image-rendering:optimizeQuality; fill-rule:evenodd; clip-rule:evenodd"
viewBox="0 0 19186 3859"
 xmlns:xlink="http://www.w3.org/1999/xlink">
 <defs>
  <style type="text/css">
   <![CDATA[
    .fil0 {fill:#2B2A29;fill-rule:nonzero}
   ]]>
  </style>
 </defs>
 <g id="Слой_x0020_1">
  <metadata id="CorelCorpID_0Corel-Layer"/>
  <path class="fil0" d="M0 3170l553 0 23 -796c9,-220 14,-501 23,-974l10 0c47,234 131,684 187,937l178 796 496 0 183 -782c75,-356 155,-754 192,-946l9 0c5,478 15,749 24,965l23 800 572 0 -150 -2290 -759 0 -164 731c-42,192 -75,384 -136,674l-14 0c-60,-299 -103,-477 -150,-674l-173 -731 -758 0 -169 2290zm3198 38c221,0 366,-159 366,-408 0,-252 -159,-407 -356,-407 -192,0 -361,173 -361,407 0,249 164,408 351,408zm764 -3194l0 1138c0,525 196,885 744,885 160,0 300,-37 441,-108l18 0 0 1279 604 0 0 -3194 -608 0 0 1442c-57,43 -160,66 -249,66 -243,0 -341,-183 -341,-440l0 -1068 -609 0zm3681 1260l-717 0 0 -726 759 0 0 -534 -1372 0 0 3156 1423 0 0 -534 -810 0 0 -852 717 0 0 -510zm515 1896l613 0 0 -1175c42,5 80,5 122,5 257,0 571,-94 768,-305 164,-173 267,-417 267,-758 0,-267 -85,-530 -272,-693 -201,-192 -492,-244 -857,-244 -234,0 -468,24 -641,61l0 3109zm613 -2650c38,-14 94,-24 150,-24 286,0 398,216 398,492 0,295 -136,515 -445,515 -37,0 -70,0 -103,-4l0 -979zm1527 -506l0 3156 613 0 0 -1320 642 0 0 1320 613 0 0 -3156 -613 0 0 1264 -642 0 0 -1264 -613 0zm2411 0l0 3156 614 0 0 -3156 -614 0zm1162 3142c140,24 337,38 571,38 529,0 848,-113 1035,-319 150,-154 234,-360 234,-618 0,-351 -192,-651 -557,-754l0 -18c309,-136 454,-408 454,-689 0,-220 -70,-431 -239,-571 -220,-188 -506,-225 -801,-225 -262,0 -510,19 -697,61l0 3095zm613 -2678c38,-14 94,-19 164,-19 248,0 356,178 356,407 0,258 -169,445 -389,445l-131 0 0 -833zm0 1288l131 0c244,0 459,163 459,482 0,318 -201,473 -454,473 -52,0 -98,0 -136,-10l0 -945zm1649 -1752l0 3156 1578 0 29 689 464 0 23 -1199 -245 -14 0 -2632 -613 0 0 2622 -623 0 0 -2622 -613 0zm2439 0l0 3156 614 0 0 -3156 -614 0z"/>
 </g>
</svg>
