<?xml version="1.0" encoding="UTF-8"?>
<!DOCTYPE svg PUBLIC "-//W3C//DTD SVG 1.1//EN" "http://www.w3.org/Graphics/SVG/1.1/DTD/svg11.dtd">
<!-- Creator: CorelDRAW X7 -->
<svg xmlns="http://www.w3.org/2000/svg" xml:space="preserve" width="7.3487mm" height="2.9546mm" version="1.1" style="shape-rendering:geometricPrecision; text-rendering:geometricPrecision; image-rendering:optimizeQuality; fill-rule:evenodd; clip-rule:evenodd"
viewBox="0 0 3920 1576"
 xmlns:xlink="http://www.w3.org/1999/xlink">
 <defs>
  <style type="text/css">
   <![CDATA[
    .fil0 {fill:#E31E24;fill-rule:nonzero}
   ]]>
  </style>
 </defs>
 <g id="Слой_x0020_1">
  <metadata id="CorelCorpID_0Corel-Layer"/>
  <path class="fil0" d="M213 6l0 325c0,151 -11,302 -36,449 -20,106 -47,203 -87,301l-90 3 10 492 189 0 9 -281 558 0 11 281 190 0 11 -492 -101 -3 0 -1075 -664 0zm230 218l183 0 0 853 -279 0c27,-79 50,-176 63,-270 21,-138 33,-287 33,-434l0 -149zm675 1065c57,10 138,15 233,15 216,0 346,-46 423,-130 61,-63 96,-147 96,-252 0,-144 -79,-266 -228,-308l0 -8c126,-55 185,-166 185,-281 0,-90 -28,-176 -97,-233 -90,-77 -207,-92 -327,-92 -107,0 -209,8 -285,25l0 1264zm250 -1094c16,-6 39,-8 67,-8 102,0 146,73 146,167 0,105 -69,182 -159,182l-54 0 0 -341zm0 526l54 0c99,0 187,67 187,197 0,130 -82,193 -185,193 -21,0 -40,0 -56,-4l0 -386zm1217 -201l-293 0 0 -296 310 0 0 -218 -560 0 0 1289 581 0 0 -218 -331 0 0 -348 293 0 0 -209zm210 775l251 0 0 -480c17,2 32,2 49,2 106,0 234,-39 314,-125 67,-70 109,-170 109,-309 0,-109 -34,-217 -111,-284 -82,-78 -201,-99 -350,-99 -95,0 -191,10 -262,25l0 1270zm251 -1083c15,-5 38,-9 61,-9 116,0 162,88 162,201 0,120 -55,210 -181,210 -16,0 -29,0 -42,-2l0 -400zm623 -206l0 1289 251 0 0 -1289 -251 0z"/>
 </g>
</svg>
