<?xml version="1.0" encoding="UTF-8"?>
<!DOCTYPE svg PUBLIC "-//W3C//DTD SVG 1.1//EN" "http://www.w3.org/Graphics/SVG/1.1/DTD/svg11.dtd">
<!-- Creator: CorelDRAW X7 -->
<svg xmlns="http://www.w3.org/2000/svg" xml:space="preserve" width="14.3776mm" height="6.3432mm" version="1.1" style="shape-rendering:geometricPrecision; text-rendering:geometricPrecision; image-rendering:optimizeQuality; fill-rule:evenodd; clip-rule:evenodd"
viewBox="0 0 13619 6008"
 xmlns:xlink="http://www.w3.org/1999/xlink">
 <defs>
  <style type="text/css">
   <![CDATA[
    .fil0 {fill:#2B2A29;fill-rule:nonzero}
   ]]>
  </style>
 </defs>
 <g id="Слой_x0020_1">
  <metadata id="CorelCorpID_0Corel-Layer"/>
  <path class="fil0" d="M121 515c100,-55 232,-103 346,-103 206,0 312,117 312,290 0,224 -220,331 -437,331l-52 0 0 367 74 0c257,0 485,107 485,386 0,199 -136,346 -393,346 -136,0 -276,-37 -382,-99l-74 393c114,63 298,110 504,110 441,0 845,-261 845,-735 0,-342 -198,-566 -489,-621l0 -7c250,-63 419,-309 419,-563 0,-323 -220,-610 -691,-610 -235,0 -441,70 -548,143l81 372zm2360 1426l107 566 467 0 -482 -2478 -577 0 -537 2478 467 0 110 -566 445 0zm-397 -375l92 -518c26,-144 62,-397 88,-563l11 0c22,162 55,412 81,563l81 518 -353 0zm1243 930c110,18 264,29 448,29 415,0 665,-88 812,-250 118,-121 184,-283 184,-485 0,-276 -151,-511 -437,-592l0 -14c242,-107 356,-320 356,-541 0,-173 -55,-338 -187,-448 -173,-147 -397,-177 -629,-177 -206,0 -400,15 -547,48l0 2430zm481 -2103c30,-11 74,-14 129,-14 195,0 279,139 279,319 0,203 -132,350 -305,350l-103 0 0 -655zm0 1011l103 0c191,0 360,129 360,379 0,250 -158,371 -356,371 -41,0 -77,0 -107,-7l0 -743zm1092 -1375l669 1133c-338,62 -456,404 -522,705 -44,214 -92,434 -166,640l464 0c58,-154 95,-360 136,-518 58,-236 139,-533 415,-533l40 0 0 1051 438 0 0 -1051 40 0c272,0 360,297 416,533 40,158 77,364 136,518l466 0c-77,-206 -121,-426 -169,-640 -66,-301 -180,-643 -518,-705l665 -1133 -547 0 -452 1066 -37 0 0 -1066 -438 0 0 1066 -33 0 -455 -1066 -548 0zm3065 0l0 625c0,291 -22,581 -69,864 -39,202 -90,390 -168,577l-172 8 18 944 364 0 18 -540 1072 0 22 540 364 0 22 -944 -195 -8 0 -2066 -1276 0zm442 420l352 0 0 1639 -536 0c51,-151 95,-338 121,-518 40,-265 63,-552 63,-835l0 -286zm1297 -420l0 2478 445 0 364 -945c81,-209 191,-507 250,-728l7 0c-15,250 -33,618 -33,1114l0 559 423 0 0 -2478 -438 0 -364 960c-73,187 -198,514 -268,728l-7 0c18,-258 48,-684 48,-1140l0 -548 -427 0zm2470 2467c111,18 265,29 449,29 415,0 665,-88 812,-250 118,-121 184,-283 184,-485 0,-276 -151,-511 -438,-592l0 -14c243,-107 357,-320 357,-541 0,-173 -55,-338 -187,-448 -173,-147 -397,-177 -629,-177 -206,0 -401,15 -548,48l0 2430zm482 -2103c29,-11 73,-14 128,-14 195,0 280,139 280,319 0,203 -133,350 -305,350l-103 0 0 -655zm0 1011l103 0c191,0 360,129 360,379 0,250 -158,371 -357,371 -40,0 -77,0 -106,-7l0 -743zm-12499 2288l0 2289 444 0 0 -957 466 0 0 957 445 0 0 -2289 -445 0 0 917 -466 0 0 -917 -444 0zm2523 1766l99 523 431 0 -445 -2289 -533 0 -496 2289 431 0 102 -523 411 0zm-367 -346l85 -479c24,-133 58,-367 82,-520l10 0c20,150 51,381 75,520l74 479 -326 0zm1440 869c31,-64 51,-132 65,-200 37,-173 54,-503 153,-632 44,-54 108,-81 186,-81l48 0 0 913 445 0 0 -2255c-139,-27 -316,-44 -486,-44 -234,0 -438,54 -581,170 -125,102 -213,261 -213,499 0,289 156,476 394,547l0 7c-58,20 -119,57 -163,101 -170,177 -167,500 -231,731 -24,88 -55,173 -85,244l468 0zm452 -1260c-24,4 -34,4 -64,4 -194,0 -320,-140 -320,-357 0,-173 89,-340 296,-340 34,0 64,4 88,11l0 682zm839 1250c102,17 244,27 414,27 384,0 615,-81 751,-231 109,-112 170,-261 170,-448 0,-255 -140,-472 -404,-547l0 -13c224,-99 329,-296 329,-500 0,-159 -51,-312 -173,-414 -160,-136 -367,-163 -581,-163 -190,0 -370,14 -506,44l0 2245zm445 -1943c27,-10 68,-13 119,-13 180,0 258,129 258,295 0,187 -122,323 -282,323l-95 0 0 -605zm0 934l95 0c177,0 333,119 333,350 0,231 -146,343 -330,343 -37,0 -71,0 -98,-7l0 -686zm1195 -1270l0 2289 445 0 0 -957 466 0 0 957 445 0 0 -2289 -445 0 0 917 -466 0 0 -917 -445 0zm2395 -27c-510,0 -758,540 -758,1165 0,628 204,1178 724,1178 435,0 740,-349 740,-1212 0,-523 -156,-1131 -706,-1131zm-21 387c204,0 265,364 265,764 0,466 -71,805 -261,805 -180,0 -279,-265 -279,-784 0,-493 99,-785 275,-785zm2062 1522c-54,17 -139,34 -214,34 -272,0 -479,-214 -479,-761 0,-567 228,-785 479,-785 99,0 156,21 207,44l75 -373c-44,-31 -153,-61 -309,-61 -445,0 -924,336 -924,1199 0,652 279,1131 866,1131 153,0 279,-24 343,-55l-44 -373zm628 407l445 0 0 -1878 408 0 0 -411 -1257 0 0 411 404 0 0 1878zm1087 -2289l0 2289 445 0 0 -2289 -445 0z"/>
 </g>
</svg>
