<?xml version="1.0" encoding="UTF-8"?>
<!DOCTYPE svg PUBLIC "-//W3C//DTD SVG 1.1//EN" "http://www.w3.org/Graphics/SVG/1.1/DTD/svg11.dtd">
<!-- Creator: CorelDRAW X7 -->
<svg xmlns="http://www.w3.org/2000/svg" xml:space="preserve" width="28.0034mm" height="3.1338mm" version="1.1" style="shape-rendering:geometricPrecision; text-rendering:geometricPrecision; image-rendering:optimizeQuality; fill-rule:evenodd; clip-rule:evenodd"
viewBox="0 0 116328 13018"
 xmlns:xlink="http://www.w3.org/1999/xlink">
 <defs>
  <style type="text/css">
   <![CDATA[
    .fil0 {fill:#2B2A29;fill-rule:nonzero}
   ]]>
  </style>
 </defs>
 <g id="Слой_x0020_1">
  <metadata id="CorelCorpID_0Corel-Layer"/>
  <path class="fil0" d="M0 2875l0 7283 1952 0 0 -5689 1519 0 0 5689 1951 0 0 -7283 -5422 0zm6777 10143l1952 0 0 -3455 29 0c209,342 611,715 1207,715 1236,0 2368,-1177 2368,-3769 0,-2026 -656,-3768 -2249,-3768 -685,0 -1236,372 -1535,968l-29 0 -104 -834 -1698 0c29,700 59,1430 59,2308l0 7835zm1952 -7477c0,-179 14,-373 89,-521 74,-343 357,-626 655,-626 581,0 924,745 924,2130 0,1147 -254,2160 -939,2160 -223,0 -476,-120 -625,-566 -75,-149 -104,-373 -104,-611l0 -1966zm5868 4737c700,0 1162,-507 1162,-1296 0,-805 -507,-1296 -1132,-1296 -611,0 -1147,551 -1147,1296 0,789 521,1296 1117,1296zm4871 -10159l0 10039 1951 0 0 -4200 2040 0 0 4200 1951 0 0 -10039 -1951 0 0 4022 -2040 0 0 -4022 -1951 0zm11901 4007l-2279 0 0 -2309 2412 0 0 -1698 -4363 0 0 10039 4527 0 0 -1698 -2576 0 0 -2710 2279 0 0 -1624zm1519 -2041c402,-223 938,-417 1400,-417 834,0 1266,477 1266,1177 0,909 -894,1341 -1773,1341l-208 0 0 1489 298 0c1042,0 1966,432 1966,1564 0,804 -552,1400 -1594,1400 -551,0 -1117,-149 -1549,-402l-298 1594c462,253 1207,447 2041,447 1787,0 3426,-1058 3426,-2979 0,-1386 -805,-2294 -1981,-2518l0 -30c1012,-253 1697,-1251 1697,-2278 0,-1311 -893,-2473 -2800,-2473 -953,0 -1787,283 -2219,581l328 1504zm9562 5779l432 2294 1891 0 -1951 -10039 -2338 0 -2175 10039 1892 0 447 -2294 1802 0zm-1609 -1519l373 -2100c104,-581 253,-1608 357,-2279l45 0c89,656 223,1668 328,2279l327 2100 -1430 0zm5675 -6226l0 4528c0,1951 -119,3069 -714,3679 -179,164 -433,283 -671,343l417 1653c506,0 983,-194 1356,-491 1266,-983 1414,-3054 1414,-5362l0 -2652 1475 0 0 8341 1951 0 0 -10039 -5228 0zm11186 4007l-2278 0 0 -2309 2412 0 0 -1698 -4364 0 0 10039 4528 0 0 -1698 -2576 0 0 -2710 2278 0 0 -1624zm879 -4007l2711 4588c-1370,253 -1847,1638 -2115,2860 -179,864 -372,1757 -670,2591l1877 0c238,-625 387,-1459 550,-2100 239,-953 567,-2160 1684,-2160l163 0 0 4260 1773 0 0 -4260 164 0c1102,0 1460,1207 1683,2160 164,641 312,1475 551,2100l1892 0c-313,-834 -492,-1727 -686,-2591 -268,-1222 -730,-2607 -2100,-2860l2696 -4588 -2219 0 -1832 4320 -149 0 0 -4320 -1773 0 0 4320 -134 0 -1846 -4320 -2220 0zm11156 0l0 10039 1951 0 0 -4200 2041 0 0 4200 1951 0 0 -10039 -1951 0 0 4022 -2041 0 0 -4022 -1951 0zm10501 -119c-2234,0 -3322,2368 -3322,5109 0,2755 894,5169 3173,5169 1906,0 3247,-1535 3247,-5318 0,-2294 -685,-4960 -3098,-4960zm-89 1698c894,0 1161,1594 1161,3351 0,2041 -312,3530 -1146,3530 -790,0 -1222,-1161 -1222,-3440 0,-2160 432,-3441 1207,-3441zm9041 6673c-239,75 -611,149 -938,149 -1192,0 -2101,-938 -2101,-3337 0,-2487 998,-3440 2101,-3440 432,0 685,89 908,193l328 -1638c-194,-134 -670,-268 -1356,-268 -1951,0 -4051,1475 -4051,5258 0,2859 1222,4960 3798,4960 670,0 1222,-105 1504,-239l-193 -1638zm2755 1787l1951 0 0 -8236 1788 0 0 -1803 -5511 0 0 1803 1772 0 0 8236zm4767 -10039l0 10039 1951 0 0 -10039 -1951 0zm4229 11767c656,-1072 1281,-2636 1728,-3977l-1981 149c-164,1177 -566,2726 -997,3962l1250 -134zm5541 -1608c298,0 596,0 894,-45 953,-149 1802,-581 2398,-1222 894,-953 1594,-2487 1594,-4677 0,-2338 -954,-3976 -2756,-3976 -1862,0 -2874,1727 -2874,3396 0,1772 1027,2889 2279,2889 625,0 1072,-253 1385,-596l44 0c-164,864 -521,1550 -938,1952 -343,312 -760,506 -1147,580 -313,60 -506,75 -879,75l0 1624zm2026 -8505c536,0 894,714 894,1996 0,640 -15,849 -90,1027 -104,253 -402,507 -745,507 -595,0 -893,-775 -908,-1713 -30,-1177 358,-1817 849,-1817zm5883 8385l1937 0 0 -9681 -1713 0 -2219 1147 327 1534 1639 -849 29 0 0 7849z"/>
 </g>
</svg>
