<?xml version="1.0" encoding="UTF-8"?>
<!DOCTYPE svg PUBLIC "-//W3C//DTD SVG 1.1//EN" "http://www.w3.org/Graphics/SVG/1.1/DTD/svg11.dtd">
<!-- Creator: CorelDRAW X7 -->
<svg xmlns="http://www.w3.org/2000/svg" xml:space="preserve" width="17.598mm" height="2.4167mm" version="1.1" style="shape-rendering:geometricPrecision; text-rendering:geometricPrecision; image-rendering:optimizeQuality; fill-rule:evenodd; clip-rule:evenodd"
viewBox="0 0 19093 2622"
 xmlns:xlink="http://www.w3.org/1999/xlink">
 <defs>
  <style type="text/css">
   <![CDATA[
    .fil0 {fill:#2B2A29;fill-rule:nonzero}
   ]]>
  </style>
 </defs>
 <g id="Слой_x0020_1">
  <metadata id="CorelCorpID_0Corel-Layer"/>
  <path class="fil0" d="M1747 2622l455 0 -160 -2622 -536 0 -211 949c-66,331 -124,627 -163,918l-12 0c-46,-295 -112,-587 -182,-918l-211 -949 -540 0 -187 2622 436 0 46 -910c12,-261 32,-592 39,-876l8 0c43,284 113,611 164,821l217 922 358 0 230 -937c50,-203 120,-525 167,-806l8 0c-4,281 12,619 27,868l47 918zm828 -2622l0 2622 510 0 0 -2622 -510 0zm767 0l708 1198c-358,66 -483,428 -553,747 -46,226 -97,459 -175,677l490 0c63,-163 102,-381 144,-549 63,-248 148,-564 440,-564l43 0 0 1113 463 0 0 -1113 43 0c287,0 381,316 439,564 43,168 82,386 144,549l494 0c-82,-218 -128,-451 -179,-677 -70,-319 -191,-681 -548,-747l704 -1198 -580 0 -478 1128 -39 0 0 -1128 -463 0 0 1128 -35 0 -483 -1128 -579 0zm2914 0l0 2622 497 0 0 -1113 39 0c206,0 277,199 343,506 43,202 77,420 144,607l505 0c-74,-241 -120,-490 -175,-747 -74,-319 -163,-560 -431,-665l599 -1210 -561 0 -424 1140 -39 0 0 -1140 -497 0zm1766 0l0 2622 509 0 0 -2622 -509 0zm2614 2622l455 0 -159 -2622 -537 0 -210 949c-66,331 -125,627 -164,918l-11 0c-47,-295 -113,-587 -183,-918l-210 -949 -541 0 -187 2622 436 0 47 -910c11,-261 31,-592 38,-876l8 0c43,284 113,611 164,821l218 922 357 0 230 -937c51,-203 121,-525 167,-806l8 0c-4,281 12,619 27,868l47 918zm829 -2622l0 2622 509 0 0 -1097 533 0 0 1097 510 0 0 -2622 -510 0 0 1050 -533 0 0 -1050 -509 0zm2890 2023l113 599 494 0 -510 -2622 -610 0 -568 2622 494 0 116 -599 471 0zm-420 -397l97 -548c27,-152 66,-421 93,-596l12 0c23,172 59,436 86,596l85 548 -373 0zm1400 996l510 0 0 -2151 467 0 0 -471 -1440 0 0 471 463 0 0 2151zm1245 -2622l0 2622 510 0 0 -1097 533 0 0 1097 509 0 0 -2622 -509 0 0 1050 -533 0 0 -1050 -510 0zm2004 0l0 2622 509 0 0 -2622 -509 0z"/>
 </g>
</svg>
