<?xml version="1.0" encoding="UTF-8"?>
<!DOCTYPE svg PUBLIC "-//W3C//DTD SVG 1.1//EN" "http://www.w3.org/Graphics/SVG/1.1/DTD/svg11.dtd">
<!-- Creator: CorelDRAW X7 -->
<svg xmlns="http://www.w3.org/2000/svg" xml:space="preserve" width="12.6715mm" height="2.9474mm" version="1.1" style="shape-rendering:geometricPrecision; text-rendering:geometricPrecision; image-rendering:optimizeQuality; fill-rule:evenodd; clip-rule:evenodd"
viewBox="0 0 10895 2534"
 xmlns:xlink="http://www.w3.org/1999/xlink">
 <defs>
  <style type="text/css">
   <![CDATA[
    .fil0 {fill:#E31E24;fill-rule:nonzero}
   ]]>
  </style>
 </defs>
 <g id="Слой_x0020_1">
  <metadata id="CorelCorpID_0Corel-Layer"/>
  <path class="fil0" d="M0 432l0 2078 1865 0 0 -2078 -398 0 0 1726 -336 0 0 -1726 -397 0 0 1726 -336 0 0 -1726 -398 0zm2220 0l0 2078 373 0 305 -793c68,-175 160,-425 210,-610l6 0c-13,209 -28,518 -28,934l0 469 355 0 0 -2078 -367 0 -305 804c-62,158 -167,432 -226,611l-6 0c16,-216 40,-574 40,-956l0 -459 -357 0zm1581 2078l404 0 0 -774c28,3 53,3 80,3 170,0 376,-62 506,-201 108,-114 176,-274 176,-499 0,-176 -56,-348 -179,-456 -133,-127 -324,-161 -564,-161 -154,0 -309,16 -423,41l0 2047zm404 -1745c25,-10 62,-16 99,-16 188,0 262,142 262,324 0,194 -90,339 -293,339 -25,0 -46,0 -68,-3l0 -644zm1591 -358c-462,0 -688,490 -688,1057 0,571 186,1070 657,1070 395,0 672,-317 672,-1100 0,-475 -142,-1027 -641,-1027zm-18 351c185,0 240,330 240,694 0,423 -65,731 -237,731 -164,0 -253,-241 -253,-712 0,-447 89,-713 250,-713zm915 -326l0 2078 395 0 0 -882 31 0c163,0 219,157 271,401 34,160 62,333 114,481l401 0c-59,-192 -96,-389 -139,-592 -58,-253 -129,-444 -342,-528l475 -958 -444 0 -336 903 -31 0 0 -903 -395 0zm1400 0l0 2078 373 0 305 -793c68,-175 160,-425 210,-610l6 0c-12,209 -28,518 -28,934l0 469 355 0 0 -2078 -367 0 -305 804c-62,158 -167,432 -225,611l-6 0c15,-216 40,-574 40,-956l0 -459 -358 0zm1582 0l0 2078 373 0 305 -793c68,-175 160,-425 209,-610l7 0c-13,209 -28,518 -28,934l0 469 354 0 0 -2078 -366 0 -306 804c-61,158 -166,432 -225,611l-6 0c15,-216 40,-574 40,-956l0 -459 -357 0zm218 -432c16,265 179,355 389,355 225,0 367,-90 398,-355l-256 0c-6,114 -56,176 -139,176 -96,0 -130,-65 -136,-176l-256 0z"/>
 </g>
</svg>
