<?xml version="1.0" encoding="UTF-8"?>
<!DOCTYPE svg PUBLIC "-//W3C//DTD SVG 1.1//EN" "http://www.w3.org/Graphics/SVG/1.1/DTD/svg11.dtd">
<!-- Creator: CorelDRAW X7 -->
<svg xmlns="http://www.w3.org/2000/svg" xml:space="preserve" width="8.315mm" height="2.9546mm" version="1.1" style="shape-rendering:geometricPrecision; text-rendering:geometricPrecision; image-rendering:optimizeQuality; fill-rule:evenodd; clip-rule:evenodd"
viewBox="0 0 3772 1340"
 xmlns:xlink="http://www.w3.org/1999/xlink">
 <defs>
  <style type="text/css">
   <![CDATA[
    .fil0 {fill:#2B2A29;fill-rule:nonzero}
   ]]>
  </style>
 </defs>
 <g id="Слой_x0020_1">
  <metadata id="CorelCorpID_0Corel-Layer"/>
  <path class="fil0" d="M0 1096c49,8 117,13 198,13 184,0 295,-39 360,-110 52,-54 81,-126 81,-215 0,-122 -66,-226 -193,-262l0 -6c107,-48 157,-142 157,-239 0,-77 -24,-150 -83,-199 -76,-65 -175,-78 -278,-78 -91,0 -177,7 -242,21l0 1075zm213 -930c13,-5 33,-7 57,-7 86,0 124,62 124,142 0,89 -59,154 -135,154l-46 0 0 -289zm0 447l46 0c84,0 159,57 159,168 0,110 -70,164 -158,164 -18,0 -34,0 -47,-3l0 -329zm1147 488l-217 -551 205 -545 -213 0 -55 200c-15,60 -29,112 -47,179l-3 0c-17,-62 -33,-119 -49,-176l-65 -203 -222 0 197 535 -205 561 212 0 58 -198c17,-62 33,-129 51,-199l5 0c18,70 37,132 58,195l69 202 221 0zm88 -1096l0 1096 213 0 0 -1096 -213 0zm504 0l0 276c0,129 -10,257 -31,383 -17,89 -40,172 -74,255l-77 3 9 418 161 0 8 -239 474 0 10 239 161 0 9 -418 -86 -3 0 -914 -564 0zm195 185l156 0 0 726 -237 0c22,-67 42,-150 53,-230 18,-117 28,-244 28,-369l0 -127zm574 -185l0 1096 213 0 0 -458 223 0 0 458 213 0 0 -1096 -213 0 0 439 -223 0 0 -439 -213 0zm838 0l0 1096 213 0 0 -1096 -213 0z"/>
 </g>
</svg>
